<svg xmlns="http://www.w3.org/2000/svg" viewBox="0 0 2400 1350"><defs><style>.cls-1{fill:#ffbea7;}.cls-2{fill:#e9eef1;}.cls-3{fill:#fd8a29;}.cls-4{fill:#ccd1d3;}.cls-5{fill:#f2f7f9;}.cls-6{fill:#dbe0e2;}.cls-7{fill:#f1ab90;}.cls-8{fill:#dadfe2;}.cls-9{fill:#dde2e5;}.cls-10{fill:#ec772a;}.cls-11{fill:#c8601a;}.cls-12{fill:#d8671d;}.cls-13{fill:#e77b2a;}</style></defs><title>rock-paper-scissors-flat-icons</title><g id="Background"><rect class="cls-1" width="2400" height="1350"/></g><g id="Icons"><g id="scissor"><path class="cls-2" d="M1937.2,714.53c-4.93,13.61,49.44-47.64,35.34-40.34l-241.1-281.28a108.16,108.16,0,0,0,16.27,132.14Z"/><path class="cls-3" d="M1927.19,742.5A73.54,73.54,0,1,1,2000.73,816a73.64,73.64,0,0,1-73.54-73.52m32.56,0a41,41,0,1,0,41-41,41,41,0,0,0-41,41"/><polygon class="cls-4" points="1912.08 603.67 1871.47 648.8 1910.2 687.55 1949.92 647.82 1912.08 603.67"/><path class="cls-5" d="M2033.81,525.05a108.16,108.16,0,0,0,16.27-132.14L1809,674.19c-14.1-7.3,40.25,53.95,35.34,40.34Z"/><path class="cls-3" d="M1780.78,669a73.61,73.61,0,0,0-73.51,73.56c0,1.39,0,2.74.12,4.09a73.53,73.53,0,0,0,146.83,0c.08-1.35.12-2.7.12-4.09A73.63,73.63,0,0,0,1780.78,669Zm40.78,77.57v.17a41,41,0,0,1-81.55,0v-.17c-.13-1.31-.21-2.66-.21-4a41,41,0,0,1,82,0C1821.76,743.86,1821.68,745.21,1821.56,746.52Z"/><path class="cls-6" d="M1890.76,602.92a18.33,18.33,0,1,1-18.33,18.33,18.32,18.32,0,0,1,18.33-18.33"/></g><ellipse class="cls-7" cx="1890.76" cy="1021.51" rx="227.99" ry="47.24"/><ellipse class="cls-7" cx="1200" cy="1021.51" rx="227.99" ry="47.24"/><path class="cls-5" d="M1347.74,392.91H1163L1023.35,532.58,1163,503.82a28.7,28.7,0,0,1-8.37,20.26L1053.46,625.6A14.47,14.47,0,0,1,1063,622c7.85,0,14.22,6.09,14.22,13.59s-6.37,13.58-14.22,13.58-14.21-6.07-14.21-13.58a13.16,13.16,0,0,1,3.45-8.78l-28.87,29V788.39c0,15.2,13,27.63,28.9,27.63h295.48c15.91,0,28.91-12.43,28.91-27.63V420.54C1376.65,405.35,1363.63,392.91,1347.74,392.91ZM1063,785.06c-7.84,0-14.21-6.07-14.21-13.57s6.37-13.6,14.21-13.6,14.22,6.09,14.22,13.6S1070.83,785.06,1063,785.06Zm0-67.92c-7.84,0-14.21-6.08-14.21-13.58S1055.14,690,1063,690s14.22,6.08,14.22,13.59S1070.83,717.14,1063,717.14Z"/><rect class="cls-8" x="1116.99" y="573.67" width="209.5" height="13.3"/><rect class="cls-8" x="1116.99" y="629.1" width="209.5" height="13.3"/><rect class="cls-8" x="1116.99" y="684.52" width="209.5" height="13.3"/><rect class="cls-8" x="1116.99" y="739.95" width="209.5" height="13.3"/><rect class="cls-8" x="1200" y="462.82" width="126.49" height="13.3"/><rect class="cls-8" x="1200" y="518.25" width="126.49" height="13.3"/><path class="cls-9" d="M1053.46,625.6l101.18-101.52a28.7,28.7,0,0,0,8.37-20.26l-139.66,28.76V655.81l28.87-29A14.51,14.51,0,0,1,1053.46,625.6Zm9.52-71.5c7.85,0,14.22,6.08,14.22,13.59s-6.37,13.58-14.22,13.58-14.21-6.08-14.21-13.58S1055.14,554.1,1063,554.1Z"/><path class="cls-3" d="M1163,392.91,1023.35,532.57h110.9A28.76,28.76,0,0,0,1163,503.82Z"/><path class="cls-3" d="M309.22,761.13c10,32.28,28,54.87,50.09,54.87H654.37c28.88,0,50-33.89,59-77.47,9.44-45.19,6-100.6-14.92-138.79-1.78-3.5-3.83-6.73-5.89-10L592.78,443.46c-29.69-43.31-65.55-67-102.5-67-20.12,0-39.83,7-58.3,20.17a139.29,139.29,0,0,0-21.76,18.83c-24.36,25.28-45.71,62.4-61.59,108.4L310.45,634.44C296.22,675.59,297.59,724.55,309.22,761.13Z"/><path class="cls-10" d="M309.22,761.13c10,32.28,28,54.87,50.09,54.87h33.12L380.25,606.19l49.31-112.84,2.42-96.7a139.29,139.29,0,0,0-21.76,18.83c-24.36,25.28-45.71,62.4-61.59,108.4L310.45,634.44C296.22,675.59,297.59,724.55,309.22,761.13Z"/><polygon class="cls-11" points="505.74 707.2 590.97 711.11 654.36 816.02 449.96 816.02 505.74 707.2"/><path class="cls-12" d="M450,816H359.31c-22,0-40.09-22.62-50.08-54.87l71-154.95,125.48,101Z"/><path class="cls-13" d="M591,711.11s88.45-91.74,107.47-111.37c20.94,38.19,24.36,93.6,14.92,138.79h0c-9,43.56-30.1,77.49-59,77.49"/><ellipse class="cls-7" cx="509.24" cy="1021.51" rx="227.99" ry="47.24"/></g></svg>